HIERARCHY
ROOT Hips
{
    OFFSET 0.000000 0.000000 0.000000
    CHANNELS 6 Xposition Yposition Zposition Zrotation Xrotation Yrotation
    JOINT Spine
    {
        OFFSET -0.000000 6.800997 0.000000
        CHANNELS 3 Xposition Yposition Zposition
        JOINT Spine1
        {
            OFFSET -0.000000 15.076976 0.000000
            CHANNELS 3 Xposition Yposition Zposition
            JOINT Neck
            {
                OFFSET -0.000000 16.735754 0.000000
                CHANNELS 3 Xposition Yposition Zposition
                JOINT Head
                {
                    OFFSET -0.000000 12.855545 1.658780
                    CHANNELS 3 Xposition Yposition Zposition
                    End Site
                    {
                        OFFSET -0.000000 16.587799 0.000000
                    }
                }
            }
            JOINT LeftShoulder
            {
                OFFSET 3.297964 11.877930 -0.634173
                CHANNELS 3 Xposition Yposition Zposition
                JOINT LeftArm
                {
                    OFFSET 14.955791 0.000000 0.000000
                    CHANNELS 3 Xposition Yposition Zposition
                    JOINT LeftForeArm
                    {
                        OFFSET 20.046839 0.000000 0.000000
                        CHANNELS 3 Xposition Yposition Zposition
                        JOINT LeftHand
                        {
                            OFFSET 18.470182 0.000000 0.000000
                            CHANNELS 3 Xposition Yposition Zposition
                            End Site
                            {
                                OFFSET 12.440849 0.000000 0.000000
                            }
                        }
                    }
                }
            }
            JOINT RightShoulder
            {
                OFFSET -3.336920 11.877930 -0.634173
                CHANNELS 3 Xposition Yposition Zposition
                JOINT RightArm
                {
                    OFFSET -14.955791 0.000000 0.000000
                    CHANNELS 3 Xposition Yposition Zposition
                    JOINT RightForeArm
                    {
                        OFFSET -20.046839 0.000000 0.000000
                        CHANNELS 3 Xposition Yposition Zposition
                        JOINT RightHand
                        {
                            OFFSET -18.470182 0.000000 0.000000
                            CHANNELS 3 Xposition Yposition Zposition
                            End Site
                            {
                                OFFSET -12.440849 0.000000 0.000000
                            }
                        }
                    }
                }
            }
        }
    }
    JOINT LeftUpLeg
    {
        OFFSET 8.293900 0.000000 0.000000
        CHANNELS 3 Xposition Yposition Zposition
        JOINT LeftLeg
        {
            OFFSET -0.000000 -37.774677 0.000000
            CHANNELS 3 Xposition Yposition Zposition
            JOINT LeftFoot
            {
                OFFSET -0.000000 -32.041210 0.000000
                CHANNELS 3 Xposition Yposition Zposition
                JOINT LeftToeBase
                {
                    OFFSET -0.000000 -5.391035 12.440849
                    CHANNELS 3 Xposition Yposition Zposition
                    End Site
                    {
                        OFFSET -0.000000 0.000000 3.317559
                    }
                }
            }
        }
    }
    JOINT RightUpLeg
    {
        OFFSET -8.293900 0.000000 0.000000
        CHANNELS 3 Xposition Yposition Zposition
        JOINT RightLeg
        {
            OFFSET -0.000000 -37.774677 0.000000
            CHANNELS 3 Xposition Yposition Zposition
            JOINT RightFoot
            {
                OFFSET -0.000000 -32.041210 0.000000
                CHANNELS 3 Xposition Yposition Zposition
                JOINT RightToeBase
                {
                    OFFSET -0.000000 -5.391035 12.440849
                    CHANNELS 3 Xposition Yposition Zposition
                    End Site
                    {
                        OFFSET -0.000000 0.000000 3.317559
                    }
                }
            }
        }
    }
}
MOTION
Frames: 9
Frame Time: 0.050000
0.442143 60.433105 0.454252 1.132048 66.392288 -0.125458 1.610905 81.921722 -3.240361 0.321042 101.222420 -3.622769 -1.011775 114.231201 0.354004 -3.034292 131.429779 -2.434880 3.958428 97.385468 -2.716525 14.465471 99.513229 -0.145878 18.461302 84.695503 -0.174816 19.519066 77.874847 8.919605 18.472729 79.200760 13.278584 -2.628773 97.217789 -3.281443 -10.786791 99.372887 -3.994419 -18.770964 85.894508 -0.279034 -23.185600 80.306931 2.569725 -17.697189 77.843712 0.698788 6.643160 59.591129 0.991177 12.961263 23.454058 1.382316 15.614838 -11.652979 0.971680 15.627967 -19.324226 12.377905 19.047796 -18.636450 16.080545 -6.355946 60.181602 -0.928113
0.471180 60.457691 0.474079 1.187269 66.276794 -0.077814 1.348018 81.830322 -3.038874 0.274972 101.012878 -3.459237 -1.421688 114.053368 0.337704 -3.604298 131.258072 -2.266857 3.868685 97.292091 -2.705281 14.464997 99.468140 -0.208958 18.434980 85.822311 0.619480 19.474072 78.742195 8.196648 19.760746 78.882790 12.786278 -2.451570 97.121811 -3.337093 -10.285680 99.541451 -3.609639 -19.070171 86.878654 -0.708714 -22.973797 80.869049 1.979198 -20.565872 79.160385 0.372913 6.443649 59.604015 0.959181 13.013899 23.362806 1.803471 16.336164 -11.529768 1.168013 16.832935 -19.121811 12.727018 19.297564 -18.712778 16.217827 -6.288535 60.257492 -0.910422
0.487121 60.474056 0.486373 1.221048 66.204216 -0.057264 1.194590 81.754547 -2.914226 0.242653 100.847496 -3.370623 -1.664855 113.933563 0.247587 -3.928398 131.088348 -2.075035 3.812974 97.184464 -2.659449 14.538754 99.377319 -0.132345 18.502043 86.449417 1.134092 19.401165 79.108765 7.745197 20.766094 78.834526 12.337791 -2.340865 97.048676 -3.417853 -9.920153 99.604088 -3.262999 -19.159901 87.401146 -1.050470 -23.036266 81.088058 1.187946 -22.313267 79.975128 0.239254 6.311404 59.620090 0.962632 13.069864 23.328562 2.155070 16.845385 -11.466616 1.355729 17.812311 -18.958992 12.995871 19.388521 -18.750835 16.386616 -6.257495 60.320686 -0.899486
0.494109 60.481411 0.491335 1.230993 66.170273 -0.052017 1.121538 81.702484 -2.856828 0.221510 100.745613 -3.337857 -1.788033 113.883606 0.174562 -4.065857 130.987091 -1.924592 3.773274 97.095695 -2.606325 14.609050 99.310707 -0.027088 18.570013 86.650230 1.384062 19.332130 79.207863 7.426830 21.352962 78.917038 11.981522 -2.284214 96.999084 -3.501947 -9.731792 99.611862 -3.049864 -19.092363 87.588303 -1.228745 -23.076115 81.177490 0.563419 -23.047291 80.334610 0.250847 6.251118 59.625576 0.993211 13.102682 23.312332 2.375771 17.087980 -11.455839 1.486529 18.374084 -18.863159 13.167517 19.364506 -18.764093 16.516878 -6.249831 60.365482 -0.904986
0.495718 60.482750 0.491055 1.229135 66.158562 -0.054516 1.090775 81.677933 -2.837307 0.212109 100.690048 -3.330925 -1.840175 113.868874 0.137301 -4.122892 130.946365 -1.836131 3.750043 97.042488 -2.565857 14.647864 99.280624 0.027946 18.631212 86.629997 1.461506 19.292736 79.238174 7.204445 21.606831 78.988068 11.784767 -2.252884 96.974930 -3.568532 -9.664020 99.610275 -2.958679 -18.999680 87.612938 -1.312763 -23.047962 81.215515 0.247425 -23.269588 80.478737 0.406139 6.235622 59.620415 1.021488 13.110302 23.300674 2.471285 17.169609 -11.469013 1.539643 18.625404 -18.817688 13.266163 19.329081 -18.769905 16.575159 -6.258174 60.393791 -0.915647
0.494843 60.481487 0.488785 1.224448 66.156303 -0.059726 1.076429 81.671127 -2.832603 0.209855 100.663406 -3.333703 -1.859441 113.866188 0.118114 -4.151117 130.935898 -1.792289 3.740629 97.017830 -2.540095 14.669448 99.269623 0.046995 18.685095 86.544983 1.456686 19.277695 79.261826 7.066616 21.684490 79.018059 11.707626 -2.233332 96.968933 -3.615940 -9.650440 99.608116 -2.929546 -18.929680 87.582138 -1.358036 -23.014656 81.224548 0.141968 -23.312801 80.557068 0.606857 6.237754 59.611820 1.038414 13.107250 23.290163 2.498889 17.186956 -11.487129 1.544816 18.723255 -18.796360 13.325743 19.302658 -18.773718 16.587469 -6.272883 60.410809 -0.924172
0.493028 60.479378 0.486148 1.219556 66.157532 -0.065026 1.067436 81.673737 -2.831938 0.211482 100.655045 -3.337958 -1.864985 113.868317 0.103847 -4.168574 130.939850 -1.773769 3.739877 97.011673 -2.525702 14.685337 99.266518 0.050541 18.731302 86.458206 1.421783 19.276695 79.283302 6.991814 21.687992 79.024323 11.689644 -2.220403 96.974945 -3.649807 -9.656379 99.605698 -2.922892 -18.883844 87.536690 -1.385847 -23.001389 81.217560 0.137623 -23.308033 80.617126 0.796387 6.244918 59.604156 1.045354 13.102445 23.279119 2.498592 17.181278 -11.503528 1.528255 18.756115 -18.783768 13.364321 19.272724 -18.776045 16.578554 -6.288377 60.420990 -0.928422
0.490871 60.477005 0.483576 1.214770 66.160034 -0.069684 1.060345 81.681686 -2.831955 0.215577 100.658905 -3.340746 -1.864463 113.873909 0.089805 -4.181678 130.952820 -1.768584 3.743592 97.017784 -2.519015 14.699805 99.267685 0.046824 18.771748 86.382950 1.378357 19.283852 79.298996 6.959209 21.662697 79.022461 11.695786 -2.211320 96.989700 -3.675280 -9.669393 99.603539 -2.922932 -18.853842 87.488014 -1.405010 -23.006657 81.201782 0.175579 -23.299236 80.667915 0.967117 6.253199 59.598442 1.045297 13.098124 23.266159 2.487830 17.164503 -11.516905 1.501712 18.760120 -18.773315 13.390366 19.230747 -18.776806 16.559624 -6.303213 60.427158 -0.928801
0.488528 60.474476 0.481067 1.210035 66.163101 -0.073777 1.054269 81.693268 -2.831984 0.221478 100.671646 -3.341552 -1.861176 113.882904 0.074616 -4.193130 130.973251 -1.770288 3.749030 97.033020 -2.517423 14.714469 99.272209 0.038317 18.809618 86.317276 1.334116 19.298008 79.307747 6.956081 21.626377 79.019974 11.709827 -2.204402 97.011429 -3.695602 -9.685780 99.602036 -2.924989 -18.831434 87.438889 -1.420025 -23.024551 81.180420 0.231155 -23.299347 80.709900 1.129478 6.261774 59.594440 1.040462 13.093998 23.250210 2.473075 17.139235 -11.527470 1.468932 18.749239 -18.762465 13.408411 19.173773 -18.775963 16.534626 -6.317656 60.430946 -0.926306
